<!DOCTYPE svg PUBLIC "-//W3C//DTD SVG 20010904//EN" "http://www.w3.org/TR/2001/REC-SVG-20010904/DTD/svg10.dtd">
<svg version="1.0" xmlns="http://www.w3.org/2000/svg" width="1200px" height="484px" viewBox="0 0 12000 4840" preserveAspectRatio="xMidYMid meet">
<g id="layer101" fill="#000000" stroke="none">
<path d="M7800 4490 l0 -309 -72 -3 -73 -3 0 -85 0 -85 72 -3 72 -3 3 -137 3 -137 85 3 c47 2 93 6 103 8 21 7 22 27 2 44 -13 10 -15 33 -13 114 l3 101 62 3 63 3 2 -163 3 -163 90 4 c100 4 125 14 100 41 -12 13 -15 44 -15 148 l0 132 60 0 60 0 0 -146 0 -147 38 7 c20 3 61 6 90 6 40 0 54 4 59 17 4 9 1 19 -5 21 -8 2 -12 40 -12 123 l0 119 80 0 80 0 0 61 c0 58 1 60 23 53 60 -18 178 -97 236 -158 l35 -36 -112 0 -112 0 0 -260 0 -260 445 0 445 0 0 260 0 259 -122 3 -123 3 65 53 c66 53 227 142 259 142 30 0 31 12 5 43 -14 16 -36 52 -50 78 -15 31 -31 49 -42 49 -9 0 -51 -20 -92 -45 -41 -25 -78 -45 -82 -45 -5 0 -8 65 -8 145 l0 146 -87 -3 -88 -3 -3 -202 -2 -203 22 0 c20 0 19 -3 -13 -37 -20 -21 -49 -55 -64 -76 l-28 -38 -26 33 c-14 18 -43 52 -65 76 l-39 42 29 0 c45 0 62 15 46 40 -7 11 -17 55 -23 98 -13 92 -41 179 -74 233 l-25 39 -119 0 c-94 0 -121 -3 -131 -15 -15 -18 -16 -17 36 -43 44 -22 94 -74 119 -122 17 -33 32 -120 21 -120 -4 0 -26 13 -49 29 -46 31 -121 71 -135 71 -4 0 -18 -18 -31 -40 -37 -66 -45 -70 -127 -70 l-74 0 0 208 c0 114 -4 213 -9 220 -5 9 -29 12 -82 10 -72 -3 -74 -4 -77 -30 -3 -27 -5 -28 -62 -28 l-59 0 -3 33 -3 32 -79 3 c-57 2 -82 -1 -87 -10 -5 -7 -9 -109 -9 -226 l0 -213 -62 3 -63 3 0 240 0 240 333 3 332 2 0 65 0 65 -425 0 -425 0 0 -310z m610 -210 l0 -100 -60 0 -60 0 0 100 0 100 60 0 60 0 0 -100z m750 -530 l0 -30 -85 0 -85 0 0 30 0 30 85 0 85 0 0 -30z m360 0 l0 -30 -85 0 -85 0 0 30 0 30 85 0 85 0 0 -30z m-360 -175 c0 -25 -1 -25 -85 -25 -84 0 -85 0 -85 25 0 25 1 25 85 25 84 0 85 0 85 -25z m360 0 c0 -25 -1 -25 -85 -25 -84 0 -85 0 -85 25 0 25 1 25 85 25 84 0 85 0 85 -25z"/>
<path d="M2210 4611 c-21 -41 -12 -104 24 -156 71 -106 216 -408 203 -422 -7 -7 -44 14 -104 58 -29 22 -59 39 -68 39 -26 0 -72 -53 -84 -97 -8 -29 -8 -49 0 -72 13 -37 26 -39 41 -7 15 35 31 38 106 21 150 -35 139 -28 162 -101 27 -89 26 -135 -3 -162 -13 -12 -29 -22 -35 -22 -22 0 -12 -27 13 -38 38 -18 73 -15 111 9 74 45 80 82 29 187 l-34 72 37 0 c55 0 97 30 117 84 40 105 -1 425 -73 566 l-28 55 -70 3 -71 3 -5 -45 c-3 -25 -17 -70 -32 -99 -14 -30 -26 -57 -26 -60 0 -3 26 10 57 29 32 19 65 33 73 32 41 -8 100 -230 100 -378 0 -104 -8 -120 -63 -120 l-43 0 -33 93 c-44 123 -190 474 -214 515 -23 38 -69 45 -87 13z"/>
<path d="M3442 4596 c114 -57 203 -137 233 -210 19 -46 19 -139 0 -176 -20 -38 -43 -50 -97 -50 -95 0 -196 77 -298 227 -52 76 -79 89 -105 50 -31 -48 -34 -81 -15 -179 10 -51 23 -154 30 -228 7 -74 18 -147 25 -161 19 -35 53 -56 121 -74 70 -18 74 -21 45 -42 -41 -28 -79 -141 -53 -157 5 -3 21 8 37 24 15 16 53 39 84 51 105 42 131 72 131 152 0 70 -33 85 -98 45 -24 -15 -56 -23 -107 -26 -116 -7 -136 17 -94 112 l20 47 -25 87 c-14 48 -29 107 -32 131 -8 50 -10 50 67 -6 114 -82 264 -127 347 -104 133 37 197 203 129 336 -29 58 -105 134 -165 164 -34 17 -59 21 -144 21 l-103 -1 67 -33z"/>
<path d="M3910 4624 c0 -4 15 -25 34 -48 49 -60 135 -195 142 -223 4 -16 0 -31 -12 -44 -16 -18 -20 -19 -30 -5 -10 14 -19 13 -80 -16 -38 -17 -70 -32 -72 -34 -2 -1 4 -19 13 -40 21 -50 75 -258 75 -289 0 -19 -6 -24 -32 -27 l-33 -3 -2 -74 c0 -41 1 -80 4 -88 3 -8 22 -13 53 -13 l47 0 7 -61 c3 -34 6 -79 6 -99 0 -20 2 -39 5 -42 8 -8 169 22 180 33 7 7 4 15 -8 23 -12 10 -19 33 -24 79 l-6 66 84 3 84 3 -4 98 -3 98 48 -3 49 -3 22 -67 c13 -37 35 -127 49 -200 15 -73 28 -134 29 -136 2 -2 108 18 173 33 26 6 29 30 6 43 -10 5 -31 63 -55 151 -22 78 -40 145 -42 150 -3 11 -2 11 73 11 l60 0 -26 -57 c-41 -92 -42 -87 27 -128 34 -20 68 -34 76 -31 15 6 70 118 122 246 16 41 32 68 34 60 3 -8 13 -40 22 -70 14 -48 42 -96 100 -176 15 -20 14 -29 -5 -105 -12 -46 -31 -106 -42 -132 -11 -26 -18 -50 -15 -53 9 -9 71 22 99 51 29 28 48 80 48 128 0 33 2 33 59 0 25 -15 70 -34 100 -43 51 -16 55 -20 68 -61 7 -24 14 -63 14 -87 1 -36 -4 -49 -30 -76 -27 -28 -30 -34 -16 -40 59 -22 137 13 168 76 18 36 18 37 -7 95 -13 32 -22 61 -20 64 2 3 24 9 49 12 104 15 207 100 242 200 23 69 23 194 0 267 -36 112 -127 197 -261 246 -64 23 -166 33 -166 16 0 -5 28 -22 62 -38 83 -38 176 -133 220 -221 28 -57 33 -79 36 -157 3 -84 1 -95 -25 -146 -33 -64 -90 -109 -149 -117 l-40 -5 -29 68 c-15 38 -54 122 -87 188 l-58 118 30 46 c44 67 37 142 -14 142 -22 0 -66 -40 -79 -72 -4 -9 -9 -8 -18 6 -25 41 -91 104 -120 116 -39 16 -76 1 -89 -37 -24 -65 -44 -103 -55 -103 -6 0 -33 14 -61 32 l-49 32 30 6 30 5 3 233 2 232 -265 0 -265 0 2 -232 3 -233 223 -3 223 -2 -7 -23 c-22 -71 -21 -70 -72 -64 -26 3 -117 11 -202 18 -138 10 -157 14 -172 33 -26 32 -37 11 -44 -87 -4 -48 -9 -85 -12 -82 -3 2 -11 53 -19 112 -8 60 -20 134 -28 165 l-15 56 55 88 c30 48 55 93 55 100 0 7 -15 21 -33 33 -18 11 -43 31 -56 45 -33 35 -45 33 -66 -14 -10 -23 -22 -43 -26 -46 -4 -2 -24 27 -45 66 l-36 70 -109 0 c-60 0 -109 -3 -109 -6z m848 -201 l-3 -78 -92 -3 -93 -3 0 81 0 80 95 0 96 0 -3 -77z m-589 -358 c16 -107 15 -165 -3 -165 -17 0 -18 4 -42 118 -16 79 -16 83 1 102 10 11 21 20 25 20 4 0 13 -34 19 -75z m994 2 l41 -48 -36 -107 -36 -107 -30 64 c-37 76 -49 157 -33 213 16 52 41 48 94 -15z m166 -303 c29 -69 51 -130 49 -135 -4 -13 -119 45 -147 75 -22 24 -23 27 -11 78 17 70 39 120 49 114 5 -3 32 -62 60 -132z"/>
<path d="M6011 4601 c-81 -76 -64 -189 35 -233 84 -37 165 5 202 103 l19 51 30 -26 c89 -75 106 -238 33 -319 -27 -30 -32 -32 -97 -32 -122 0 -203 60 -320 236 -38 57 -76 107 -86 113 -28 17 -57 -25 -57 -80 0 -37 7 -51 45 -96 70 -84 328 -440 384 -530 35 -58 -1 -47 -131 39 -66 43 -68 44 -97 28 -54 -27 -76 -104 -50 -171 l10 -28 25 32 c22 27 32 32 67 32 23 0 80 -14 127 -31 112 -42 135 -41 177 5 49 53 45 77 -28 144 -66 61 -186 200 -238 275 l-31 46 66 -31 c76 -35 174 -47 242 -29 116 32 188 177 152 307 -20 70 -83 160 -137 194 -46 29 -50 30 -179 30 -132 0 -132 0 -163 -29z m159 -56 c0 -40 -54 -106 -97 -119 -23 -7 -63 22 -63 47 0 22 32 59 64 73 44 19 96 18 96 -1z"/>
<path d="M6608 4605 c-24 -31 -23 -32 15 -40 38 -9 164 -66 192 -88 19 -15 12 -16 -97 -17 l-118 0 0 -80 0 -80 130 0 130 0 0 -30 0 -29 -102 -3 -103 -3 0 -75 0 -75 103 -3 c101 -3 102 -3 102 -27 0 -24 -2 -24 -87 -27 l-88 -3 0 -240 0 -240 440 0 440 0 0 240 0 240 -70 3 c-74 2 -115 16 -115 39 0 10 24 13 105 13 l105 0 0 80 0 80 -105 0 -105 0 0 30 0 30 135 0 136 0 -3 78 -3 77 -118 5 -118 5 50 33 c28 17 78 44 113 59 78 33 84 38 68 58 -10 12 -40 15 -165 15 l-153 0 -49 -39 c-26 -21 -56 -48 -67 -59 -18 -21 -18 -21 10 -46 l29 -25 -115 0 -115 0 34 28 c35 29 35 51 0 51 -11 0 -45 20 -77 45 l-57 45 -145 0 c-141 -1 -145 -1 -162 -25z m592 -335 l0 -30 -80 0 -80 0 0 30 0 30 80 0 80 0 0 -30z m0 -215 c0 -24 -2 -25 -62 -25 -62 1 -98 15 -98 39 0 7 27 11 80 11 79 0 80 0 80 -25z m-160 -190 c0 -25 -1 -25 -90 -25 -95 0 -95 0 -81 48 1 1 39 2 86 2 84 0 85 0 85 -25z m340 0 c0 -25 -1 -25 -85 -25 -84 0 -85 0 -85 25 0 25 1 25 85 25 84 0 85 0 85 -25z m-340 -160 l0 -26 -87 3 c-70 2 -88 6 -89 18 -1 28 7 30 92 30 83 0 84 0 84 -25z m340 0 c0 -25 -1 -25 -85 -25 -84 0 -85 0 -85 25 0 25 1 25 85 25 84 0 85 0 85 -25z"/>
<path d="M9800 4580 l0 -50 225 0 225 0 0 -115 0 -115 -130 0 -130 0 0 -90 0 -90 130 0 130 0 0 -90 0 -90 -114 0 -114 0 -40 73 c-22 39 -49 83 -60 97 l-20 25 -44 -31 c-23 -17 -58 -39 -75 -48 l-33 -16 40 -65 c67 -109 117 -216 145 -310 15 -50 31 -100 35 -112 l9 -22 69 23 c114 39 128 51 98 85 -7 9 -18 30 -24 46 -5 17 -13 38 -17 48 -6 15 0 17 69 17 l76 0 0 -122 0 -121 96 6 c109 7 118 11 104 37 -5 10 -10 59 -10 109 l0 91 185 0 185 0 0 95 0 95 -185 0 -185 0 0 90 0 90 135 0 136 0 -3 88 -3 87 -132 3 -133 3 0 114 0 115 210 0 210 0 0 50 0 50 -530 0 -530 0 0 -50z"/>
<path d="M10900 4626 c0 -3 20 -46 44 -96 25 -50 61 -140 81 -201 l37 -111 37 35 c20 19 51 42 69 52 29 14 33 20 27 43 -7 28 -63 180 -90 245 l-15 37 -95 0 c-52 0 -95 -2 -95 -4z"/>
<path d="M11260 4395 l0 -235 120 0 120 0 0 -65 0 -64 -152 -3 -153 -3 0 -80 0 -80 153 -3 152 -3 0 -54 c0 -52 -1 -55 -22 -50 -13 3 -61 6 -107 8 l-83 2 -22 -65 c-13 -36 -26 -72 -30 -81 -6 -15 6 -18 106 -23 186 -11 258 -25 438 -81 11 -3 36 19 74 65 60 73 67 104 24 99 -13 -1 -48 5 -78 14 -30 10 -71 21 -90 25 l-35 8 0 65 0 64 143 3 142 3 0 84 0 85 -145 0 -145 0 0 65 0 65 125 0 125 0 0 235 0 235 -330 0 -330 0 0 -235z m488 28 l-3 -88 -157 -3 -158 -3 0 91 0 90 160 0 161 0 -3 -87z"/>
<path d="M2985 4296 c-24 -32 -105 -76 -139 -76 -34 0 -13 -18 37 -32 44 -12 52 -19 55 -40 5 -39 -43 -124 -104 -188 -30 -31 -54 -60 -54 -63 0 -10 93 27 144 57 93 54 156 165 159 278 3 95 -49 128 -98 64z"/>
<path d="M11019 4114 c-13 -14 -52 -46 -87 -71 l-62 -45 31 -56 c45 -81 52 -87 80 -71 20 10 80 54 156 115 11 10 6 23 -33 83 -26 39 -50 71 -54 71 -4 0 -17 -12 -31 -26z"/>
<path d="M11025 3719 c-44 -33 -84 -64 -88 -68 -10 -9 70 -141 86 -141 13 0 102 54 149 91 l36 29 -45 75 c-24 41 -48 75 -51 75 -4 -1 -43 -28 -87 -61z"/>
<path d="M2845 3276 c-13 -10 -20 -30 -23 -74 -4 -55 -2 -63 21 -86 31 -31 41 -32 68 -5 14 14 19 30 17 52 -3 27 -8 33 -34 37 -27 4 -29 8 -23 30 l7 25 7 -23 c9 -26 38 -26 43 0 4 19 -31 58 -51 58 -7 0 -22 -6 -32 -14z m45 -125 c0 -17 -18 -21 -24 -6 -3 9 0 15 9 15 8 0 15 -4 15 -9z"/>
<path d="M3882 3274 c-19 -13 -22 -24 -22 -84 0 -63 2 -71 25 -86 23 -15 27 -15 50 0 20 13 25 25 25 56 0 38 -2 40 -30 40 -25 0 -30 4 -30 25 0 30 16 33 23 5 8 -29 37 -26 37 4 0 21 -31 56 -50 56 -3 0 -16 -7 -28 -16z m38 -129 c0 -8 -4 -15 -10 -15 -5 0 -10 7 -10 15 0 8 5 15 10 15 6 0 10 -7 10 -15z"/>
<path d="M5795 3276 c-13 -10 -20 -30 -23 -74 -4 -55 -2 -63 21 -86 15 -14 31 -26 37 -26 23 0 50 41 50 75 0 32 -2 35 -30 35 -26 0 -30 4 -30 26 0 14 4 23 10 19 6 -3 10 -13 10 -21 0 -21 34 -13 38 8 4 19 -31 58 -51 58 -7 0 -22 -6 -32 -14z"/>
<path d="M6182 3274 c-19 -13 -22 -24 -22 -84 0 -63 2 -71 25 -86 23 -15 27 -15 50 0 20 13 25 25 25 56 0 38 -2 40 -30 40 -26 0 -30 4 -30 26 0 14 4 23 10 19 6 -3 10 -13 10 -21 0 -24 35 -12 38 13 2 13 -5 27 -20 37 -28 20 -28 20 -56 0z"/>
<path d="M6596 3268 c-10 -14 -16 -44 -16 -79 0 -34 -5 -59 -11 -61 -9 -3 -9 -9 -1 -23 6 -11 13 -28 16 -37 8 -28 36 -22 36 7 0 16 6 25 15 25 8 0 15 6 15 14 0 8 -7 16 -15 20 -22 8 -21 102 2 114 19 11 11 42 -11 42 -8 0 -22 -10 -30 -22z"/>
<path d="M7162 3274 c-19 -13 -22 -24 -22 -84 0 -60 3 -71 22 -84 51 -36 78 -8 78 82 0 37 -4 72 -8 78 -13 20 -47 24 -70 8z m38 -85 c0 -37 -4 -58 -10 -54 -18 11 -12 115 7 115 2 0 3 -27 3 -61z"/>
<path d="M8392 3274 c-19 -13 -22 -24 -22 -84 0 -63 2 -71 25 -86 23 -15 27 -15 50 0 23 15 25 23 25 84 0 37 -4 72 -8 78 -13 20 -47 24 -70 8z m38 -85 c0 -37 -4 -58 -10 -54 -18 11 -12 115 7 115 2 0 3 -27 3 -61z"/>
<path d="M9206 3274 c-12 -11 -16 -35 -16 -84 0 -60 3 -71 22 -84 29 -20 34 -20 58 4 12 12 20 33 20 55 0 32 -2 35 -30 35 -26 0 -30 4 -30 26 0 14 4 23 10 19 6 -3 10 -13 10 -21 0 -21 34 -13 38 8 4 19 -31 58 -52 58 -8 0 -22 -7 -30 -16z"/>
<path d="M9592 3274 c-19 -13 -22 -24 -22 -84 0 -63 2 -71 25 -86 23 -15 27 -15 50 0 23 15 25 23 25 86 0 60 -3 71 -22 84 -12 9 -25 16 -28 16 -3 0 -16 -7 -28 -16z m38 -84 c0 -27 -4 -52 -10 -55 -6 -4 -10 17 -10 55 0 38 4 59 10 55 6 -3 10 -28 10 -55z"/>
<path d="M2604 3267 c-2 -7 -3 -60 -2 -118 l3 -104 43 -3 c24 -2 50 2 58 9 17 14 19 90 3 106 -8 8 -8 22 0 49 16 56 14 74 -8 74 -13 0 -22 -14 -33 -52 l-16 -53 -1 53 c-1 45 -4 52 -21 52 -11 0 -23 -6 -26 -13z m71 -157 c0 -13 -6 -25 -12 -27 -9 -3 -13 6 -13 27 0 21 4 30 13 28 6 -3 12 -15 12 -28z"/>
<path d="M3035 3271 c-9 -16 3 -31 26 -31 14 0 19 6 17 17 -4 20 -33 29 -43 14z"/>
<path d="M3340 3160 l0 -120 25 0 25 0 0 100 0 100 25 0 c18 0 25 5 25 20 0 17 -7 20 -50 20 l-50 0 0 -120z"/>
<path d="M3540 3190 c0 -83 1 -90 20 -90 19 0 20 7 20 90 0 83 -1 90 -20 90 -19 0 -20 -7 -20 -90z"/>
<path d="M3700 3205 c0 -43 -4 -75 -10 -75 -5 0 -10 -7 -10 -15 0 -8 5 -15 10 -15 6 0 10 -8 10 -18 0 -23 19 -42 42 -42 21 0 24 20 6 39 -10 11 -10 14 0 18 14 6 16 33 2 33 -6 0 -10 32 -10 75 0 68 -2 75 -20 75 -18 0 -20 -7 -20 -75z"/>
<path d="M4220 3190 c0 -83 1 -90 20 -90 19 0 20 7 20 90 0 83 -1 90 -20 90 -19 0 -20 -7 -20 -90z"/>
<path d="M4370 3192 l0 -89 45 -1 c42 0 45 1 50 31 4 18 5 57 3 87 -3 47 -6 55 -23 55 -18 0 -21 -8 -25 -70 l-6 -70 -4 70 c-4 56 -8 70 -22 73 -16 3 -18 -6 -18 -86z"/>
<path d="M4726 3273 c-17 -17 -4 -63 24 -86 17 -14 30 -34 30 -44 -1 -17 -1 -17 -15 1 -13 18 -45 17 -45 -2 0 -15 25 -40 46 -46 39 -12 53 12 55 99 l2 80 -45 2 c-25 1 -48 -1 -52 -4z m54 -54 c0 -11 -4 -17 -10 -14 -5 3 -10 13 -10 21 0 8 5 14 10 14 6 0 10 -9 10 -21z"/>
<path d="M5086 3264 c-3 -9 -6 -42 -6 -74 0 -74 6 -90 36 -90 20 0 24 -5 24 -30 0 -23 4 -30 20 -30 19 0 20 7 20 120 l0 120 -44 0 c-31 0 -46 -5 -50 -16z m54 -75 c0 -37 -4 -58 -10 -54 -5 3 -10 31 -10 61 0 30 5 54 10 54 6 0 10 -27 10 -61z"/>
<path d="M5290 3190 c0 -83 1 -90 20 -90 19 0 20 7 20 90 0 83 -1 90 -20 90 -19 0 -20 -7 -20 -90z"/>
<path d="M5447 3273 c-11 -17 -10 -179 1 -205 8 -20 19 -28 37 -28 26 0 33 18 13 38 -8 8 -8 15 0 25 7 8 8 17 2 23 -5 5 -10 40 -12 79 -2 56 -6 70 -20 73 -9 2 -18 -1 -21 -5z"/>
<path d="M5620 3213 c0 -40 -5 -74 -12 -81 -9 -9 -9 -18 -1 -34 6 -13 14 -31 17 -40 3 -11 15 -18 31 -18 26 0 33 18 13 38 -8 8 -8 15 2 27 10 12 11 18 2 24 -6 3 -12 38 -14 76 -2 57 -6 70 -20 73 -16 3 -18 -5 -18 -65z"/>
<path d="M5980 3191 l0 -90 40 1 c31 0 40 4 40 18 0 10 -9 20 -20 23 -17 4 -20 14 -20 71 0 59 -2 66 -20 66 -19 0 -20 -7 -20 -89z"/>
<path d="M6364 3267 c-3 -8 -4 -47 -2 -88 l3 -74 48 -3 47 -2 0 91 c0 81 -2 90 -17 87 -15 -3 -19 -16 -21 -71 -4 -86 -22 -79 -22 9 0 51 -3 64 -15 64 -9 0 -18 -6 -21 -13z"/>
<path d="M6911 3231 c-25 -117 -26 -133 -5 -129 13 2 21 15 25 38 l5 35 8 -38 c11 -49 39 -47 46 3 l6 35 7 -37 c5 -23 14 -38 22 -38 18 0 19 20 4 111 -10 55 -15 69 -30 69 -11 0 -20 -11 -25 -32 l-8 -33 -5 30 c-4 17 -13 31 -23 33 -12 2 -19 -9 -27 -47z"/>
<path d="M7350 3191 l0 -90 40 1 c43 0 57 25 20 35 -18 5 -20 14 -20 74 0 62 -2 69 -20 69 -19 0 -20 -7 -20 -89z"/>
<path d="M7525 3268 c-3 -8 -4 -61 -3 -119 3 -96 4 -104 23 -104 19 0 20 7 20 115 0 101 -2 115 -18 118 -9 2 -19 -3 -22 -10z"/>
<path d="M7677 3273 c-9 -8 -9 -136 -1 -157 3 -9 17 -16 30 -16 20 0 24 -5 24 -30 0 -23 4 -30 20 -30 19 0 20 7 20 120 l0 120 -43 0 c-24 0 -47 -3 -50 -7z m53 -84 c0 -27 -4 -49 -10 -49 -5 0 -10 25 -10 56 0 34 4 53 10 49 6 -3 10 -28 10 -56z"/>
<path d="M8036 3272 c-3 -4 -6 -48 -7 -98 -3 -101 8 -134 46 -134 28 0 35 27 10 37 -14 5 -14 7 0 23 14 15 14 18 0 30 -11 9 -15 32 -15 81 0 53 -3 69 -14 69 -8 0 -17 -4 -20 -8z"/>
<path d="M8200 3192 l0 -90 35 1 c27 1 35 5 35 19 0 10 -7 18 -15 18 -11 0 -15 16 -17 67 -2 55 -6 68 -20 71 -16 3 -18 -6 -18 -86z"/>
<path d="M8580 3191 l0 -89 78 1 77 2 3 88 c3 82 2 87 -18 87 -18 0 -20 -6 -20 -70 0 -40 -4 -70 -10 -70 -6 0 -10 30 -10 70 0 63 -2 70 -20 70 -18 0 -20 -7 -20 -70 0 -40 -4 -70 -10 -70 -6 0 -10 30 -10 70 0 63 -2 70 -20 70 -19 0 -20 -7 -20 -89z"/>
<path d="M8990 3265 c0 -9 11 -38 25 -65 30 -59 30 -60 5 -60 -13 0 -20 -7 -20 -20 0 -17 7 -20 40 -20 24 0 43 5 46 13 2 7 -7 38 -20 68 l-26 54 23 5 c42 11 26 35 -25 38 -39 2 -48 0 -48 -13z"/>
<path d="M9390 3191 l0 -90 40 1 c31 0 40 4 40 18 0 10 -9 20 -20 23 -17 4 -20 14 -20 71 0 59 -2 66 -20 66 -19 0 -20 -7 -20 -89z"/>
<path d="M3034 3205 c-7 -18 3 -35 22 -35 20 0 30 30 13 41 -20 12 -29 11 -35 -6z"/>
<path d="M3547 3073 c-14 -13 -6 -33 13 -33 13 0 20 7 20 20 0 19 -20 27 -33 13z"/>
<path d="M4220 3061 c0 -15 6 -21 21 -21 14 0 19 5 17 17 -5 26 -38 29 -38 4z"/>
<path d="M5290 3061 c0 -15 6 -21 21 -21 14 0 19 5 17 17 -5 26 -38 29 -38 4z"/>
<path d="M3571 2824 c-42 -21 -57 -36 -72 -68 -44 -96 -11 -189 83 -237 73 -37 159 -20 215 44 100 114 35 269 -119 283 -44 5 -62 1 -107 -22z"/>
<path d="M6267 2843 c-4 -3 -7 -444 -7 -980 l0 -973 978 2 977 3 0 975 0 975 -217 3 -218 2 0 -40 0 -40 -540 0 -540 0 0 40 0 40 -213 0 c-118 0 -217 -3 -220 -7z m1513 -1013 l0 -510 -537 2 -538 3 -3 508 -2 507 540 0 540 0 0 -510z"/>
<path d="M4575 2348 c-27 -38 -54 -143 -65 -249 -5 -56 -10 -247 -10 -425 l0 -323 -27 5 c-48 8 -515 74 -529 74 -11 0 -14 -41 -14 -219 0 -121 4 -222 8 -225 5 -3 119 -19 253 -35 134 -17 259 -33 277 -36 l32 -6 0 -389 0 -390 33 0 c112 0 424 23 434 32 21 17 15 46 -12 64 l-25 16 0 304 c0 167 2 304 5 304 21 0 790 -102 827 -110 25 -5 70 -18 99 -29 l53 -20 86 87 c48 48 108 111 135 140 l48 53 -30 32 c-31 32 -99 135 -268 402 -150 239 -295 455 -305 455 -5 0 -42 -25 -82 -55 -40 -30 -118 -80 -174 -112 l-101 -58 86 -105 c74 -91 224 -310 218 -316 -1 -2 -128 15 -282 36 -154 22 -288 40 -297 40 -17 0 -18 23 -18 348 1 487 -14 465 305 470 215 4 478 -9 669 -34 65 -8 120 -14 121 -12 2 2 -7 72 -18 156 l-21 152 -698 0 -697 0 -16 -22z"/>
<path d="M3607 1878 c-86 -23 -145 -118 -131 -210 9 -57 71 -121 133 -138 118 -32 234 54 234 174 0 87 -50 151 -138 175 -46 12 -47 12 -98 -1z"/>
<path d="M5670 534 c-19 -25 -75 -84 -124 -132 l-89 -87 69 -63 c38 -35 84 -75 102 -89 l32 -25 66 57 c74 65 189 191 189 206 0 13 -186 179 -200 179 -5 -1 -26 -21 -45 -46z"/>
<path d="M6056 440 c-21 -27 -82 -94 -136 -149 l-98 -100 81 -68 c45 -38 90 -74 100 -82 16 -12 28 -3 128 95 61 60 125 126 142 148 l31 39 -30 21 c-16 11 -63 49 -105 83 l-76 61 -37 -48z"/>
</g>
<g id="layer102" fill="#756aab" stroke="none">
<path d="M280 2845 c0 -4 6 -19 14 -34 35 -67 40 -188 40 -1021 1 -914 1 -909 -62 -967 -40 -37 -113 -67 -185 -78 -38 -6 -47 -11 -47 -27 0 -19 10 -19 643 -16 623 4 644 5 722 26 240 65 417 222 467 411 24 94 23 241 -2 322 -32 106 -107 210 -202 282 -54 40 -261 147 -287 147 -8 0 4 13 26 29 57 41 141 143 257 312 262 380 306 439 388 523 49 49 88 91 88 93 0 2 -111 2 -247 1 l-248 -3 -150 -226 c-231 -348 -402 -556 -527 -642 -56 -39 -154 -66 -235 -67 l-43 0 1 308 c1 409 8 525 37 580 12 23 22 45 22 47 0 3 -106 5 -235 5 -129 0 -235 -2 -235 -5z m745 -1009 c265 -53 424 -187 480 -403 19 -71 19 -211 1 -279 -48 -180 -207 -326 -416 -381 -47 -13 -106 -17 -217 -18 -83 0 -154 3 -158 7 -13 12 -24 367 -25 742 l0 359 133 -7 c72 -3 164 -12 202 -20z"/>
<path d="M2271 2793 c-106 -107 -182 -253 -215 -415 -21 -101 -21 -282 0 -367 41 -166 158 -350 277 -434 133 -95 230 -127 383 -127 308 1 523 149 589 405 8 32 15 74 15 92 l0 33 -502 0 -503 -1 1 138 c0 156 15 224 69 338 65 137 204 254 341 289 76 20 231 21 299 2 111 -29 225 -117 271 -208 29 -57 59 -66 49 -15 -14 69 -88 199 -149 263 l-61 64 -403 0 -404 0 -57 -57z m675 -887 c62 -22 77 -143 30 -240 -50 -101 -141 -156 -260 -156 -162 0 -319 157 -391 388 l-7 24 304 -5 c166 -2 312 -7 324 -11z"/>
</g>


</svg>